<?xml version="1.0" encoding="utf-8"?>
<!-- Generator: Adobe Illustrator 23.0.2, SVG Export Plug-In . SVG Version: 6.00 Build 0)  -->
<svg version="1.1" xmlns="http://www.w3.org/2000/svg" xmlns:xlink="http://www.w3.org/1999/xlink" x="0px" y="0px"
	 width="1.2em" viewBox="0 0 145.6 124.8" style="enable-background:new 0 0 145.6 124.8;" xml:space="preserve">
<style type="text/css">
	.st0{fill:#FFFFFF;}
	.st1{fill-rule:evenodd;clip-rule:evenodd;fill:#0A0B09;}
	.st2{fill-rule:evenodd;clip-rule:evenodd;fill:#D50172;}
</style>
<g id="Layer_2">
</g>
<g id="Layer_1">
	<title>Logo iDeal</title>
	<desc>Created with Sketch.</desc>
	<g id="Page-1">
		<g id="Logo-iDeal" transform="translate(-30.000000, -30.000000)">
			<g transform="translate(30.000000, 30.000000)">
				<path id="Fill-4" class="st0" d="M74.6,0c60.9,0,70,39,70,62.3c0,40.4-24.9,62.6-70,62.6c0,0-73.2,0-74.6,0c0-1.5,0-123.5,0-125
					C1.4,0,74.6,0,74.6,0z"/>
				<polygon id="Fill-5" class="st1" points="15.3,110.1 37.3,110.1 37.3,70.8 15.3,70.8 				"/>
				<path id="Fill-6" class="st1" d="M40,51.1c0,7.6-6.1,13.7-13.7,13.7c-7.5,0-13.7-6.1-13.7-13.7c0-7.5,6.1-13.7,13.7-13.7
					C33.9,37.5,40,43.6,40,51.1"/>
				<path id="Fill-7" class="st2" d="M129.3,57.5c-2.6-34.7-29.9-42.2-54.7-42.2H48.2v23l0,25.5v46.2h26.5
					c40.3,0,54.3-18.8,54.9-46.2C129.6,63.9,129.6,58.6,129.3,57.5z"/>
			</g>
		</g>
	</g>
</g>
</svg>
